<?xml version="1.0" encoding="iso-8859-1"?>
<!-- Generator: Adobe Illustrator 19.0.0, SVG Export Plug-In . SVG Version: 6.00 Build 0)  -->
<svg version="1.1" id="Capa_1" xmlns="http://www.w3.org/2000/svg" xmlns:xlink="http://www.w3.org/1999/xlink" x="0px" y="0px"
	 viewBox="0 0 479.853 479.853" style="enable-background:new 0 0 479.853 479.853;" xml:space="preserve">
<linearGradient id="SVGID_1_" gradientUnits="userSpaceOnUse" x1="-25.3809" y1="557.7438" x2="-25.3809" y2="618.1459" gradientTransform="matrix(8 0 0 -8 458.5411 4939.6758)">
	<stop  offset="0" style="stop-color:#006DF0"/>
	<stop  offset="1" style="stop-color:#00E7F0"/>
</linearGradient>
<path style="fill:url(#SVGID_1_);" d="M439.494,215.853h-72.16c-0.514-29.318-4.912-58.438-13.08-86.6
	c18.151-5.436,35.508-13.236,51.624-23.2c3.788-2.275,5.014-7.19,2.739-10.977s-7.19-5.014-10.977-2.739
	c-0.125,0.075-0.248,0.154-0.369,0.236c-14.986,9.249-31.125,16.484-48,21.52c-8.982-27.907-25.242-52.915-47.104-72.448
	c-3.488-2.712-8.514-2.083-11.226,1.405c-2.642,3.398-2.122,8.279,1.178,11.043c19.339,17.364,33.755,39.523,41.792,64.24
	c-23.067,5.603-46.682,8.637-70.416,9.048V39.853c0-4.418-3.582-8-8-8c-4.418,0-8,3.582-8,8v87.528
	c-23.729-0.42-47.339-3.463-70.4-9.072c8.032-24.717,22.445-46.877,41.784-64.24c3.488-2.712,4.117-7.738,1.405-11.226
	c-2.712-3.488-7.738-4.117-11.226-1.405c-0.077,0.06-0.152,0.121-0.227,0.183c-21.862,19.533-38.122,44.541-47.104,72.448
	c-16.876-5.033-33.015-12.269-48-21.52c-3.722-2.384-8.672-1.298-11.056,2.424s-1.298,8.672,2.424,11.056l0,0
	c16.117,9.963,33.473,17.763,51.624,23.2c-8.165,28.17-12.558,57.299-13.064,86.624h-72.16c-4.418,0-8,3.582-8,8s3.582,8,8,8h72.16
	c0.514,29.318,4.912,58.438,13.08,86.6c-18.151,5.436-35.508,13.236-51.624,23.2c-3.787,2.275-5.013,7.19-2.738,10.977
	c2.275,3.788,7.19,5.014,10.977,2.738c0.125-0.075,0.248-0.154,0.369-0.236c14.986-9.249,31.125-16.484,48-21.52
	c8.982,27.907,25.242,52.915,47.104,72.448c3.387,2.837,8.433,2.392,11.27-0.995s2.392-8.433-0.995-11.27
	c-0.074-0.062-0.15-0.123-0.227-0.183c-19.339-17.364-33.755-39.523-41.792-64.24c23.067-5.603,46.682-8.637,70.416-9.048v87.528
	c0,4.418,3.582,8,8,8c4.418,0,8-3.582,8-8v-87.528c23.729,0.42,47.339,3.463,70.4,9.072c-8.032,24.717-22.445,46.877-41.784,64.24
	c-3.488,2.712-4.117,7.738-1.405,11.226s7.738,4.117,11.226,1.405c0.077-0.06,0.152-0.121,0.227-0.183
	c21.862-19.533,38.122-44.541,47.104-72.448c16.876,5.033,33.015,12.269,48,21.52c1.281,0.824,2.773,1.26,4.296,1.256
	c4.418-0.002,7.998-3.586,7.996-8.004c-0.001-2.725-1.39-5.262-3.684-6.732c-16.117-9.963-33.473-17.763-51.624-23.2
	c8.173-28.169,12.574-57.298,13.088-86.624h72.16c4.418,0,8-3.582,8-8S443.912,215.853,439.494,215.853L439.494,215.853z
	 M339.006,133.533c7.711,26.778,11.857,54.457,12.328,82.32h-87.84v-72.264C288.965,143.11,314.298,139.736,339.006,133.533z
	 M171.982,133.533c24.709,6.201,50.042,9.575,75.512,10.056v72.264h-87.84C160.126,187.99,164.271,160.311,171.982,133.533
	L171.982,133.533z M171.982,314.189c-7.707-26.785-11.852-54.468-12.328-82.336h87.84v72.48
	C222.032,304.758,196.7,308.064,171.982,314.189L171.982,314.189z M339.006,314.189c-24.718-6.123-50.05-9.429-75.512-9.856v-72.48
	h87.84C350.859,259.72,346.714,287.404,339.006,314.189z"/>
<linearGradient id="SVGID_2_" gradientUnits="userSpaceOnUse" x1="-27.3268" y1="557.7438" x2="-27.3268" y2="618.1459" gradientTransform="matrix(8 0 0 -8 458.5411 4939.6758)">
	<stop  offset="0" style="stop-color:#006DF0"/>
	<stop  offset="1" style="stop-color:#00E7F0"/>
</linearGradient>
<path style="fill:url(#SVGID_2_);" d="M425.894,78.501C345.535-15.558,204.141-26.663,110.083,53.696
	c-84.085,71.839-103.157,194.293-44.901,288.3L1.39,468.245c-1.993,3.943-0.411,8.756,3.532,10.748
	c1.12,0.566,2.357,0.86,3.612,0.86c1.198-0.001,2.379-0.275,3.456-0.8l129.904-62.2c106.678,62.645,243.942,26.948,306.586-79.73
	C496.767,254.896,487.703,151.113,425.894,78.501L425.894,78.501z M413.734,358.813c-66.494,78.003-179.919,95.899-267.2,42.16
	c-2.314-1.438-5.203-1.592-7.656-0.408l-112.56,53.92l55.24-109.344c1.293-2.555,1.122-5.606-0.448-8
	c-62.6-96.32-35.264-225.15,61.056-287.75s225.15-35.264,287.75,61.056C480.115,187.685,473.53,288.741,413.734,358.813z"/>
<g>
</g>
<g>
</g>
<g>
</g>
<g>
</g>
<g>
</g>
<g>
</g>
<g>
</g>
<g>
</g>
<g>
</g>
<g>
</g>
<g>
</g>
<g>
</g>
<g>
</g>
<g>
</g>
<g>
</g>
</svg>
