<?xml version="1.0" encoding="iso-8859-1"?>
<!-- Generator: Adobe Illustrator 19.0.0, SVG Export Plug-In . SVG Version: 6.00 Build 0)  -->
<svg version="1.1" id="Capa_1" xmlns="http://www.w3.org/2000/svg" xmlns:xlink="http://www.w3.org/1999/xlink" x="0px" y="0px"
	 viewBox="0 0 479.997 479.997" style="enable-background:new 0 0 479.997 479.997;" xml:space="preserve">
<linearGradient id="SVGID_1_" gradientUnits="userSpaceOnUse" x1="-26.8767" y1="557.9933" x2="-26.8767" y2="622.3643" gradientTransform="matrix(8 0 0 -8 455.0117 4940.9849)">
	<stop  offset="0" style="stop-color:#006DF0"/>
	<stop  offset="1" style="stop-color:#00E7F0"/>
</linearGradient>
<path style="fill:url(#SVGID_1_);" d="M479.382,243.054c0.809-1.957,0.809-4.155,0-6.112c-0.399-0.976-0.989-1.863-1.736-2.608
	l-67.872-67.872c-3.178-3.07-8.242-2.982-11.312,0.196c-2.994,3.1-2.994,8.015,0,11.116l54.224,54.224H247.998V27.31l54.224,54.224
	c3.178,3.069,8.242,2.982,11.312-0.196c2.994-3.1,2.994-8.015,0-11.116L245.662,2.35c-3.12-3.128-8.186-3.135-11.314-0.014
	c-0.005,0.005-0.01,0.01-0.014,0.014l-67.872,67.872c-3.069,3.178-2.981,8.243,0.197,11.312c3.1,2.994,8.015,2.994,11.115,0
	l54.224-54.224v204.688H27.31l54.224-54.224c3.069-3.178,2.981-8.243-0.197-11.312c-3.1-2.994-8.015-2.994-11.115,0L2.35,234.334
	c-0.747,0.745-1.337,1.632-1.736,2.608c-0.809,1.957-0.809,4.155,0,6.112c0.399,0.976,0.989,1.863,1.736,2.608l67.872,67.872
	c3.178,3.069,8.243,2.982,11.312-0.196c2.994-3.1,2.994-8.015,0-11.116L27.31,247.998h204.688v204.688l-54.224-54.224
	c-3.178-3.069-8.243-2.982-11.312,0.196c-2.994,3.1-2.994,8.015,0,11.116l67.872,67.872c3.12,3.128,8.186,3.135,11.314,0.014
	c0.005-0.005,0.01-0.01,0.014-0.014l67.872-67.872c3.07-3.178,2.982-8.242-0.196-11.312c-3.1-2.995-8.016-2.995-11.116,0
	l-54.224,54.224V247.998h204.688l-54.224,54.224c-3.178,3.07-3.266,8.134-0.196,11.312c3.07,3.178,8.134,3.266,11.312,0.196
	c0.066-0.064,0.132-0.129,0.196-0.196l67.872-67.872C478.393,244.917,478.983,244.031,479.382,243.054z"/>
</svg>
