<?xml version="1.0" encoding="iso-8859-1"?>
<!-- Generator: Adobe Illustrator 19.0.0, SVG Export Plug-In . SVG Version: 6.00 Build 0)  -->
<svg version="1.1" id="Capa_1" xmlns="http://www.w3.org/2000/svg" xmlns:xlink="http://www.w3.org/1999/xlink" x="0px" y="0px"
	 viewBox="0 0 480 480" style="enable-background:new 0 0 480 480;" xml:space="preserve">
<g>
	
		<linearGradient id="SVGID_1_" gradientUnits="userSpaceOnUse" x1="-26.875" y1="526.801" x2="-26.875" y2="584.595" gradientTransform="matrix(8 0 0 -8 455 4653)">
		<stop  offset="0" style="stop-color:#006DF0"/>
		<stop  offset="1" style="stop-color:#00E7F0"/>
	</linearGradient>
	<path style="fill:url(#SVGID_1_);" d="M472,32H8c-4.418,0-8,3.582-8,8v304c0,4.418,3.582,8,8,8h208v80h-72c-4.418,0-8,3.582-8,8
		s3.582,8,8,8h192c4.418,0,8-3.582,8-8s-3.582-8-8-8h-72v-80h208c4.418,0,8-3.582,8-8V40C480,35.582,476.418,32,472,32z M248,432
		h-16v-80h16V432z M464,336H16V48h448V336z"/>
	
		<linearGradient id="SVGID_2_" gradientUnits="userSpaceOnUse" x1="-26.875" y1="526.801" x2="-26.875" y2="584.595" gradientTransform="matrix(8 0 0 -8 455 4653)">
		<stop  offset="0" style="stop-color:#006DF0"/>
		<stop  offset="1" style="stop-color:#00E7F0"/>
	</linearGradient>
	<path style="fill:url(#SVGID_2_);" d="M296,232c-0.021-20.899-11.677-40.048-30.232-49.664
		c16.897-14.231,19.058-39.466,4.826-56.362c-14.231-16.897-39.466-19.058-56.362-4.826c-16.897,14.231-19.058,39.466-4.826,56.362
		c1.468,1.743,3.083,3.358,4.826,4.826C195.677,191.952,184.021,211.101,184,232v40h112V232z M216,152c0-13.255,10.745-24,24-24
		c13.255,0,24,10.745,24,24s-10.745,24-24,24C226.745,176,216,165.255,216,152z M280,256h-80v-24c0-22.091,17.909-40,40-40
		s40,17.909,40,40V256z"/>
</g>
<g>
</g>
<g>
</g>
<g>
</g>
<g>
</g>
<g>
</g>
<g>
</g>
<g>
</g>
<g>
</g>
<g>
</g>
<g>
</g>
<g>
</g>
<g>
</g>
<g>
</g>
<g>
</g>
<g>
</g>
</svg>
