<?xml version="1.0" encoding="iso-8859-1"?>
<!-- Generator: Adobe Illustrator 19.0.0, SVG Export Plug-In . SVG Version: 6.00 Build 0)  -->
<svg version="1.1" id="Capa_1" xmlns="http://www.w3.org/2000/svg" xmlns:xlink="http://www.w3.org/1999/xlink" x="0px" y="0px"
	 viewBox="0 0 480 480" style="enable-background:new 0 0 480 480;" xml:space="preserve">
<linearGradient id="SVGID_1_" gradientUnits="userSpaceOnUse" x1="-26.875" y1="559.095" x2="-26.875" y2="620.258" gradientTransform="matrix(8 0 0 -8 454.9999 4941)">
	<stop  offset="0" style="stop-color:#006DF0"/>
	<stop  offset="1" style="stop-color:#00E7F0"/>
</linearGradient>
<path style="fill:url(#SVGID_1_);" d="M344.904,0H135.096C113.513,0.022,96.022,17.513,96,39.096v401.808
	c0.022,21.583,17.513,39.074,39.096,39.096h209.808c21.583-0.022,39.074-17.513,39.096-39.096V39.096
	C383.978,17.513,366.487,0.022,344.904,0z M135.096,16h209.808c12.75,0.013,23.083,10.346,23.096,23.096V48H112v-8.904
	C112.013,26.346,122.346,16.013,135.096,16L135.096,16z M368,64v336H112V64H368z M344.904,464H135.096
	c-12.75-0.013-23.083-10.346-23.096-23.096V416h256v24.904C367.987,453.654,357.654,463.987,344.904,464z"/>
<linearGradient id="SVGID_2_" gradientUnits="userSpaceOnUse" x1="-30.875" y1="559.095" x2="-30.875" y2="620.258" gradientTransform="matrix(8 0 0 -8 454.9999 4941)">
	<stop  offset="0" style="stop-color:#006DF0"/>
	<stop  offset="1" style="stop-color:#00E7F0"/>
</linearGradient>
<path style="fill:url(#SVGID_2_);" d="M200,432h16v16h-16V432z"/>
<linearGradient id="SVGID_3_" gradientUnits="userSpaceOnUse" x1="-26.875" y1="559.095" x2="-26.875" y2="620.258" gradientTransform="matrix(8 0 0 -8 454.9999 4941)">
	<stop  offset="0" style="stop-color:#006DF0"/>
	<stop  offset="1" style="stop-color:#00E7F0"/>
</linearGradient>
<path style="fill:url(#SVGID_3_);" d="M232,432h16v16h-16V432z"/>
<linearGradient id="SVGID_4_" gradientUnits="userSpaceOnUse" x1="-22.875" y1="559.095" x2="-22.875" y2="620.258" gradientTransform="matrix(8 0 0 -8 454.9999 4941)">
	<stop  offset="0" style="stop-color:#006DF0"/>
	<stop  offset="1" style="stop-color:#00E7F0"/>
</linearGradient>
<path style="fill:url(#SVGID_4_);" d="M264,432h16v16h-16V432z"/>
<g>
	
		<linearGradient id="SVGID_5_" gradientUnits="userSpaceOnUse" x1="-26.875" y1="559.095" x2="-26.875" y2="620.258" gradientTransform="matrix(8 0 0 -8 454.9999 4941)">
		<stop  offset="0" style="stop-color:#006DF0"/>
		<stop  offset="1" style="stop-color:#00E7F0"/>
	</linearGradient>
	<path style="fill:url(#SVGID_5_);" d="M166.448,214.472c40.607-40.622,106.457-40.633,147.078-0.026
		c0.009,0.009,0.017,0.017,0.026,0.026l11.288-11.336c-46.86-46.846-122.82-46.846-169.68,0L166.448,214.472z"/>
	
		<linearGradient id="SVGID_6_" gradientUnits="userSpaceOnUse" x1="-26.875" y1="559.095" x2="-26.875" y2="620.258" gradientTransform="matrix(8 0 0 -8 454.9999 4941)">
		<stop  offset="0" style="stop-color:#006DF0"/>
		<stop  offset="1" style="stop-color:#00E7F0"/>
	</linearGradient>
	<path style="fill:url(#SVGID_6_);" d="M200.392,248.448l11.368,11.264c15.57-15.597,40.836-15.618,56.433-0.047
		c0.016,0.016,0.031,0.031,0.047,0.047l11.368-11.264c-21.799-21.87-57.201-21.928-79.071-0.129
		c-0.043,0.043-0.086,0.086-0.129,0.129H200.392z"/>
	
		<linearGradient id="SVGID_7_" gradientUnits="userSpaceOnUse" x1="-26.875" y1="559.095" x2="-26.875" y2="620.258" gradientTransform="matrix(8 0 0 -8 454.9999 4941)">
		<stop  offset="0" style="stop-color:#006DF0"/>
		<stop  offset="1" style="stop-color:#00E7F0"/>
	</linearGradient>
	<path style="fill:url(#SVGID_7_);" d="M177.784,225.784l11.312,11.312c28.116-28.107,73.692-28.107,101.808,0l11.312-11.312
		c-34.334-34.361-90.022-34.383-124.383-0.049C177.817,225.751,177.8,225.768,177.784,225.784z"/>
	
		<linearGradient id="SVGID_8_" gradientUnits="userSpaceOnUse" x1="-26.875" y1="559.095" x2="-26.875" y2="620.258" gradientTransform="matrix(8 0 0 -8 454.9999 4941)">
		<stop  offset="0" style="stop-color:#006DF0"/>
		<stop  offset="1" style="stop-color:#00E7F0"/>
	</linearGradient>
	<circle style="fill:url(#SVGID_8_);" cx="240" cy="288" r="16"/>
</g>
<g>
</g>
<g>
</g>
<g>
</g>
<g>
</g>
<g>
</g>
<g>
</g>
<g>
</g>
<g>
</g>
<g>
</g>
<g>
</g>
<g>
</g>
<g>
</g>
<g>
</g>
<g>
</g>
<g>
</g>
</svg>
